<?xml version="1.0" encoding="utf-8"?>
<!-- Generator: Adobe Illustrator 23.0.5, SVG Export Plug-In . SVG Version: 6.00 Build 0)  -->
<svg version="1.1" id="Capa_1" xmlns="http://www.w3.org/2000/svg" xmlns:xlink="http://www.w3.org/1999/xlink" x="0px" y="0px"
	 viewBox="0 0 2551.18 1700.79" style="enable-background:new 0 0 2551.18 1700.79;" xml:space="preserve">
<style type="text/css">
	.st0{fill:#CA3B36;}
</style>
<g>
	<g>
		<path class="st0" d="M830.58,1004.21c-20.01,7.11-33.22-9.18-42.35-34.86l-6.7-18.86l-8.91,3.16c-1.39,0.49-1.9,1.98-1.39,4.14
			l2.11,10.71l-15.16,5.38l-20.26-57.04l15.16-5.38l4.46,7.79c1.28,2.15,2.35,2.94,3.74,2.45l42.57-15.12
			c1.39-0.49,1.71-1.78,1.35-4.26l-1.45-8.86l15.16-5.38l22.44,63.17C850.47,976.95,850.36,997.19,830.58,1004.21z M819.08,972.21
			c8.33-2.96,8.02-8.97,4.65-18.46l-6.12-17.24l-20.71,7.36l5.88,16.54C805.89,969.2,810.52,975.25,819.08,972.21z"/>
		<path class="st0" d="M903.34,1173.23l-12.38,10.26l-39.63-47.84l11.16-9.24l7.1,6.07c2.45,1.8,4.41,2.25,6.21-1.16l2.42-5.35
			l-23.18-27.99l-5.79,1.29c-3.68,1.14-3.69,3.05-2.53,5.6l5.12,8.68l-11.16,9.24l-31.41-37.91l12.39-10.26l6.38,5.39
			c2.02,1.67,3.58,1.82,5.09,1.52l48.15-10.39c2.52-0.81,3.32-1.96,2.83-4.09l-2-3.76l12.39-10.26l33.84,40.84L899.97,1158
			c-1.49,2.83-2.33,5.28,0.36,10.06L903.34,1173.23z M884.78,1111.76l10.19-22.15l-0.55-0.66l-23.97,5.51L884.78,1111.76z"/>
		<path class="st0" d="M974.71,1226.46l8.84,3.38c2.36,0.83,3.69,0.75,4.44-0.51l22.99-38.89c0.81-1.37,0.17-2.46-1.69-4.14
			l-7.22-6.12l8.19-13.84l51.26,30.3l-8.19,13.84l-8.74-3.31c-2.51-1.06-3.75-0.65-4.44,0.51l-22.99,38.89
			c-0.69,1.16-0.45,2.45,1.69,4.14l7.11,6.06l-8.19,13.84l-51.26-30.3L974.71,1226.46z"/>
		<path class="st0" d="M1255.13,1249.34l-2.74,15.85l-8.86,0.09c-2.34-0.16-3.7,0.48-3.97,2.05l-11.18,64.6l-29.76-5.15
			l-45.78-57.26l-1.21-0.21l-4.81,27.82c-0.27,1.57,0.91,2.65,3.05,3.27l10.25,3.39l-2.74,15.85l-48.99-8.48l2.74-15.85l8.98-0.07
			c2.5-0.07,3.72-0.6,3.97-2.05l7.7-44.52c0.25-1.45-0.71-2.37-3.05-3.27l-8.44-3.08l2.74-15.85l42.46,7.35l45.63,56.74l0.85,0.15
			l4.73-27.34c0.25-1.45-0.59-2.35-3.05-3.27l-10.01-3.35l2.74-15.85L1255.13,1249.34z"/>
		<path class="st0" d="M1436.91,1216.5l8.15,32.76l-19.54,4.86l-6.93-11.56c-1.25-1.97-2.86-2.83-5.95-2.06l-13.94,3.47l11.62,46.7
			c0.38,1.55,1.9,2.06,3.99,1.79l10.51-0.97l3.88,15.61l-59.69,14.85l-3.88-15.61l9.5-4.01c2.17-0.92,3.16-2.05,2.8-3.48
			l-11.62-46.7l-13.94,3.47c-2.98,0.74-4.23,2.32-4.17,4.58l-0.82,13.49l-19.42,4.83l-8.15-32.76L1436.91,1216.5z"/>
		<path class="st0" d="M1611.96,1167.91l19.15,26l-85.51,62.97l-9.54-12.95l6.17-6.53c1.69-1.85,2.14-3.1,1.27-4.29l-26.79-36.38
			c-0.87-1.19-2.2-1.12-4.47-0.06l-8.06,3.96l-9.54-12.95l84.23-62.03l17.18,23.33l-19.28,14.2l-5.07-4.19
			c-2.19-1.74-4.85-1.61-7.32,0.21l-22.44,16.53l8.08,10.97l22.74-16.74l11.07,15.03l-22.74,16.74l10.48,14.24l21.35-15.72
			c2.67-1.97,3.67-4.54,2.96-7.37l-3.2-10.76L1611.96,1167.91z"/>
		<path class="st0" d="M1750.69,1004.55l14.12,8.45c-1.13,2.61-5.52,11.14-9.5,17.78c-12.8,21.39-33.11,22.1-44.12,22.1
			c-6.51,0.11-8.31,2.18-10.77,6.29l-3.03,5.06l10.75,6.43c1.26,0.76,2.74,0.21,4.08-1.56l5.34-6.53l12.96,7.75l-29.81,49.83
			l-13.8-8.26l3.17-8.4c0.84-2.36,0.77-3.68-0.49-4.44l-38.77-23.2c-1.26-0.76-2.46-0.19-4.15,1.67l-5.91,6.77l-13.8-8.26
			l34.54-57.73c12.86-21.49,25.62-35.89,42.05-26.05c10.32,6.18,13.48,17.65,12.08,30.26c11.98-0.42,23.15-4.03,32.74-15.03
			L1750.69,1004.55z M1688.74,1046.88c5.55-9.27,6.86-18.64,0.33-22.55c-6.64-3.97-11.35,0.79-16.83,9.96l-7.12,11.9l17.7,10.59
			L1688.74,1046.88z"/>
		<path class="st0" d="M1785.56,888.91c1.83-9.4,1.34-16.5-4.93-17.72c-6.75-1.31-9.28,7.2-17.01,26.96
			c-6.18,15.68-15.02,35.35-33.82,31.69c-20.13-3.92-21.91-28.79-16.65-55.78c2.3-11.81,7.99-25.59,9-30.77
			c0.23-1.21,0.3-2.19-0.18-2.91l1.53-7.83l25.79,5.03l-4.51,23.14c-9.22,1.08-13.34,4.91-16.39,20.57
			c-1.22,6.27-1.93,14.38,3.86,15.51c6.63,1.29,9.76-8.98,14.79-22.64c7.75-21.13,16.26-41.74,35.91-37.91
			c18.08,3.52,24.97,24,18.79,55.7c-3.62,18.56-8.46,27.37-10.08,35.69c-0.4,2.05-0.51,3.28-0.24,5.71l-1.9,9.76l-28.68-5.59
			l4.93-25.31C1775.78,913.4,1782.08,906.75,1785.56,888.91z"/>
	</g>
	<g>
		<g>
			<path class="st0" d="M1119.14,869.92H955.07v78.11h-81.18V716.08h253.1v56.62H955.07v43.66h164.07V869.92z"/>
		</g>
		<g>
			<path class="st0" d="M1300.39,1097.55h-96.19L1073.55,865.6h91.76l87.67,162.03h1.36l86.64-162.03h90.39L1300.39,1097.55z"/>
		</g>
		<g>
			<path class="st0" d="M1476.95,925.35h-81.87V693.4h166.8c37.86,0,64.81,2.39,80.5,7.5c15.35,5.12,25.92,13.64,31.72,25.24
				s8.53,28.65,8.53,50.83v5.8c0,26.95-3.75,45.71-11.6,56.28c-7.85,10.92-20.13,18.08-36.5,21.83
				c-16.71,3.75-40.93,5.46-72.66,5.46h-84.94V925.35z M1549.6,809.72c16.03,0,27.29-0.68,34.45-1.71s11.94-3.41,14.67-6.82
				c2.39-3.41,3.75-9.89,3.75-19.78v-3.07c0-8.53-1.02-14.67-2.73-18.42c-1.71-3.75-5.8-6.14-12.28-7.85s-19.1-2.39-37.86-2.39
				h-72.66v60.04H1549.6z"/>
		</g>
	</g>
	<g>
		<path class="st0" d="M818.45,592.01l-12.53,20.78l-12.68-3.36c-2.29-0.77-4.16-0.21-5.85,2.6l-15.65,25.95l13.37,8.06l16.39-27.19
			l17.08,10.3l-16.39,27.19l12.47,7.52c1.35,0.81,2.74,0.28,4.37-1.66l7.31-9.07l15.06,9.08l-33.39,55.39l-14.72-8.87l3.42-8.97
			c0.91-2.52,0.84-3.94-0.51-4.75l-41.34-24.93c-1.35-0.81-2.63-0.21-4.44,1.77l-6.34,7.21l-14.72-8.87l58.32-96.73L818.45,592.01z"
			/>
		<path class="st0" d="M832.77,587.16c-20.3-20.52-16.23-52.04,15.29-83.22c31.34-31,62.99-34.82,83.29-14.31
			s16.14,52.13-15.19,83.13C884.63,603.95,853.07,607.68,832.77,587.16z M860,560.22c13.56,13.71,26.47,10.72,40.56-3.22
			c13.99-13.84,17.03-26.63,3.46-40.34s-26.2-10.62-40.19,3.22C849.75,533.82,846.44,546.51,860,560.22z"/>
		<path class="st0" d="M1028.6,406l-10.65,32.19l29.52,8.09c4.72,1.39,8.7,1.23,13.9-0.52l8.25-2.74l8.51,14.93l-47.42,27.02
			l-6.62-11.63L995.02,465L989,483.07c-0.78,2.86,0.79,4.83,3.1,4.12l8.52-3.34l7.86,13.79l-48.68,27.73l-8.51-14.93l4.5-3.77
			c3.14-2.7,5.9-5.02,6.93-7.72l11.26-34.04l-27.95-8.24c-5.06-1.19-8.53-1.18-14.01,0.58l-9.17,3.26l-8.51-14.93l48.45-27.6
			l6.36,11.17l27.46,8.97l6.01-17.01c0.75-2.39-0.22-5.16-2.87-4.25l-8.81,3.36l-7.86-13.79l49.59-28.25l8.51,14.93l-5.41,4.29
			C1032.56,399.97,1029.76,402.47,1028.6,406z"/>
		<path class="st0" d="M1246.01,330.84l2.56,16.99l-9.5,3.02c-2.78,0.95-3.49,2.38-4.2,3.82l-24.74,74.44l-38.66,5.83l-44.24-61.13
			c-1.94-3.16-3.95-5.11-9.54-5.2l-6.25-0.12l-2.56-16.99l67.46-10.16l2.4,15.96l-9.09,3.09c-2.15,0.72-4.1,2.74-1.84,6.25
			l25.97,37.62l13.86-43.62c0.99-4-0.97-5.56-3.21-5.49l-10.76-0.1l-2.4-15.96L1246.01,330.84z"/>
		<path class="st0" d="M1371.97,415.4l-1.23,17.14l-66.21-4.73l1.1-15.44l9.94-1c3.2-0.56,4.99-1.75,3.69-5.65l-2.35-5.82
			l-38.73-2.77l-3.28,5.42c-1.84,3.68-0.36,5.1,2.46,6.09l10.48,2.46l-1.1,15.44l-52.47-3.75l1.23-17.14l8.88-0.94
			c2.79-0.33,4.05-1.42,4.94-2.8l27.54-44.86c1.23-2.54,0.94-4.01-1.07-5.21l-4.38-1.23l1.23-17.14l56.53,4.04l28.59,69.25
			c1.08,3.23,2.35,5.69,8.04,7.15L1371.97,415.4z M1310.79,384.32l-9.58-24.23l-0.92-0.07l-13.45,22.58L1310.79,384.32z"/>
		<path class="st0" d="M1489.71,437.22l-10.9,32.74l-108.8-36.22l5.43-16.31l9.5,1.37c2.66,0.33,4.02-0.04,4.52-1.54l15.25-45.81
			c0.5-1.49-0.38-2.61-2.7-3.94l-8.42-4.6l5.43-16.31l61.37,20.43l-5.43,16.31l-11.49-2.03c-2.45-0.54-3.9,0.08-4.4,1.58
			l-16.2,48.67l30.5,10.15c2.86,0.95,6.26,0.7,8.13-1.99l6.43-9.75L1489.71,437.22z"/>
		<path class="st0" d="M1594.64,500.57l-18.05,29.4l-97.71-60l8.99-14.65l8.94,3.49c2.51,0.93,3.93,0.87,4.75-0.47l25.26-41.14
			c0.82-1.34,0.23-2.63-1.73-4.45l-7.16-6.4l8.99-14.65l55.12,33.84l-8.99,14.65l-10.73-4.59c-2.26-1.08-3.82-0.8-4.64,0.54
			l-26.84,43.71l27.39,16.82c2.57,1.58,5.94,2.11,8.37-0.09l8.48-8.04L1594.64,500.57z"/>
		<path class="st0" d="M1681.79,585.09l-24.2,24.6l-80.91-79.58l12.05-12.25l7.93,5.41c2.24,1.47,3.63,1.73,4.74,0.61l33.85-34.42
			c1.1-1.12,0.81-2.51-0.69-4.73l-5.54-7.84l12.05-12.25l79.69,78.38l-21.71,22.07l-18.24-17.94l3.57-6.06
			c1.46-2.61,0.88-5.39-1.46-7.69l-21.23-20.88l-10.21,10.38l21.51,21.16l-13.98,14.22l-21.51-21.16l-13.25,13.47l20.2,19.87
			c2.53,2.48,5.41,3.11,8.27,1.88l10.81-5.19L1681.79,585.09z"/>
		<path class="st0" d="M1802.34,666.63l-14.57,9.12l-4.05-4.74c-1.98-2.17-3.93-4.04-6.39-4.51l-45.05-9.4l-13.12,8.22
			c-1.33,0.84-1.49,2.32-0.5,4.65l3.89,9.17l-14.9,9.33l-33.71-53.82l14.9-9.33l6.7,7.73c1.77,1.83,3.06,2.42,4.4,1.58l13.79-8.64
			l10.56-39.74c0.64-3.19,0.58-7.48-1.33-12.01l-2.66-6.23l14.57-9.12l33.71,53.82l-13.57,8.5l-3.63-4.07
			c-2.16-2.21-4.63-2.21-5.52,0.83l-4.01,19.54l19.2,4.7c3.12,0.53,3.89-2.44,2.85-5.34l-1.7-4.2l13.57-8.5L1802.34,666.63z"/>
	</g>
</g>
<g>
</g>
<g>
</g>
<g>
</g>
<g>
</g>
<g>
</g>
</svg>
